<svg xmlns="http://www.w3.org/2000/svg" width="32" height="32" viewBox="0 0 32 32">
  <defs>
    <style>
      .cls-1 {
        fill: #ffae00;
      }

      .cls-2 {
        fill-rule: evenodd;
      }
    </style>
  </defs>
  <rect id="BG_Shape" data-name="BG Shape" class="cls-1" width="32" height="32" rx="3" ry="3"/>
  <path id="_360" data-name="360" class="cls-2" d="M8.3,17.254H9.266a1.348,1.348,0,0,1,.891.269,1.134,1.134,0,0,1,.322.914,0.969,0.969,0,0,1-.311.741,1.17,1.17,0,0,1-.832.29,1.117,1.117,0,0,1-.779-0.287A0.889,0.889,0,0,1,8.24,18.5H6.254a2.3,2.3,0,0,0,.369,1.286,2.437,2.437,0,0,0,1.087.885,3.784,3.784,0,0,0,1.556.319,3.648,3.648,0,0,0,2.309-.686,2.2,2.2,0,0,0,.879-1.828,1.967,1.967,0,0,0-.387-1.239A2.294,2.294,0,0,0,11,16.492a2.4,2.4,0,0,0,.981-0.794,1.8,1.8,0,0,0,.337-1.04,2.162,2.162,0,0,0-.815-1.787,3.494,3.494,0,0,0-2.238-.65,3.557,3.557,0,0,0-1.462.3,2.477,2.477,0,0,0-1.04.823,2.022,2.022,0,0,0-.375,1.2H8.363a0.7,0.7,0,0,1,.29-0.568,1.07,1.07,0,0,1,.683-0.229,1,1,0,0,1,.744.267,0.937,0.937,0,0,1,.264.688,0.969,0.969,0,0,1-1.107,1.084H8.3v1.471Zm9.615-5.033a4.614,4.614,0,0,0-2.326.6,4.1,4.1,0,0,0-1.614,1.649,4.924,4.924,0,0,0-.565,2.37v0.791a3.885,3.885,0,0,0,.41,1.769,2.839,2.839,0,0,0,1.113,1.181,3.184,3.184,0,0,0,1.623.413,3.081,3.081,0,0,0,1.526-.384,2.738,2.738,0,0,0,1.072-1.064,2.987,2.987,0,0,0,.384-1.494,3.261,3.261,0,0,0-.656-2.121,2.154,2.154,0,0,0-1.764-.809,2.31,2.31,0,0,0-1.688.656,2.239,2.239,0,0,1,.876-1.474,2.965,2.965,0,0,1,1.819-.53h0.088V12.221h-0.3Zm-0.665,4.808a1.617,1.617,0,0,1,.308,1.022,1.648,1.648,0,0,1-.3,1.014,0.908,0.908,0,0,1-.753.4q-1.119,0-1.119-1.617V17.26a1.152,1.152,0,0,1,.393-0.445,1.129,1.129,0,0,1,.656-0.182A0.984,0.984,0,0,1,17.255,17.028Zm9.067-1.192a4.078,4.078,0,0,0-.779-2.666,2.691,2.691,0,0,0-2.2-.943,2.689,2.689,0,0,0-2.194.938,4.073,4.073,0,0,0-.776,2.666v1.559a4.066,4.066,0,0,0,.779,2.66,2.7,2.7,0,0,0,2.2.943,2.683,2.683,0,0,0,2.189-.937,4.074,4.074,0,0,0,.776-2.666V15.836Zm-1.975,1.852a2.929,2.929,0,0,1-.246,1.351,0.8,0.8,0,0,1-.744.431,0.806,0.806,0,0,1-.762-0.442,3.065,3.065,0,0,1-.24-1.4v-2.18a2.864,2.864,0,0,1,.249-1.277,0.784,0.784,0,0,1,.741-0.422,0.8,0.8,0,0,1,.762.454,3.044,3.044,0,0,1,.24,1.374v2.109Z"/>
  <path id="o" class="cls-2" d="M25.268,10.344a1.587,1.587,0,0,0,.442,1.1,1.478,1.478,0,0,0,1.087.406,1.462,1.462,0,0,0,1.115-.435,1.642,1.642,0,0,0,.412-1.176V10.2a1.692,1.692,0,0,0-.41-1.2,1.457,1.457,0,0,0-1.122-.441,1.6,1.6,0,0,0-.812.2,1.32,1.32,0,0,0-.53.57,1.87,1.87,0,0,0-.185.845Zm0.987-.284q0.041-.735.536-0.735,0.545,0,.545.853v0.1q-0.012.812-.539,0.812a0.459,0.459,0,0,1-.407-0.205,1.18,1.18,0,0,1-.138-0.645Z"/>
</svg>
