<svg id="Banner_Group_copy" data-name="Banner Group copy" xmlns="http://www.w3.org/2000/svg" width="32" height="32" viewBox="0 0 32 32">
  <defs>
    <style>
      .cls-1 {
        fill: #ffae00;
      }

      .cls-2, .cls-3 {
        fill-rule: evenodd;
      }

      .cls-3 {
        fill: #282828;
        opacity: 0.3;
      }
    </style>
  </defs>
  <rect id="BG_Shape" data-name="BG Shape" class="cls-1" width="32" height="32" rx="3" ry="3"/>
  <path id="ABCD" class="cls-2" d="M8.9,22.086h1.357L8.324,16.844H7.136L5.213,22.086h1.35l0.3-.979H8.6ZM7.73,18.313l0.565,1.818H7.168Zm8.727,3.773a2.322,2.322,0,0,0,1.445-.394,1.388,1.388,0,0,0,.488-1.157,1.173,1.173,0,0,0-.22-0.72,1.1,1.1,0,0,0-.63-0.4,1.09,1.09,0,0,0,.551-0.425,1.247,1.247,0,0,0,.187-0.695,1.234,1.234,0,0,0-.527-1.076,2.667,2.667,0,0,0-1.539-.371H14.329v5.242h2.128Zm0.022-2.229a0.581,0.581,0,0,1,.652.659,0.548,0.548,0,0,1-.184.441,0.788,0.788,0,0,1-.526.157H15.593V19.858h0.886Zm-0.886-2.041h0.619a1.022,1.022,0,0,1,.616.146,0.565,0.565,0,0,1,.191.478,0.538,0.538,0,0,1-.176.437,0.936,0.936,0,0,1-.59.152H15.593V17.816Zm10.164,2.5a0.871,0.871,0,0,1-.245.652,0.97,0.97,0,0,1-.666.205,0.771,0.771,0,0,1-.726-0.36,2.509,2.509,0,0,1-.211-1.2V19.239a2.268,2.268,0,0,1,.23-1.127,0.755,0.755,0,0,1,.691-0.353,0.992,0.992,0,0,1,.691.209,0.939,0.939,0,0,1,.241.688h1.26a1.985,1.985,0,0,0-.659-1.384,2.259,2.259,0,0,0-1.534-.5,2.155,2.155,0,0,0-1.166.315,2.033,2.033,0,0,0-.772.893,3.172,3.172,0,0,0-.268,1.348v0.259a2.78,2.78,0,0,0,.594,1.9,2.059,2.059,0,0,0,1.627.673,2.58,2.58,0,0,0,1.114-.23,1.782,1.782,0,0,0,.758-0.65,1.914,1.914,0,0,0,.3-0.967H25.757Z"/>
  <path id="Rectangle_3_copy_2" data-name="Rectangle 3 copy 2" class="cls-3" d="M12.178,9H13V23H12.178V9Z"/>
  <path id="Rectangle_3_copy_3" data-name="Rectangle 3 copy 3" class="cls-3" d="M20.191,9H21.01V23H20.191V9Z"/>
  <path id="Rectangle_3_copy_8" data-name="Rectangle 3 copy 8" class="cls-3" d="M28.191,9H29.01V23H28.191V9Z"/>
  <path id="Rectangle_3_copy_7" data-name="Rectangle 3 copy 7" class="cls-3" d="M2.986,9H3.8V23H2.986V9Z"/>
  <path id="Rectangle_3_copy_9" data-name="Rectangle 3 copy 9" class="cls-3" d="M3,9.006V8H29V9.006H3Z"/>
  <path id="Rectangle_3_copy_10" data-name="Rectangle 3 copy 10" class="cls-3" d="M3,24.006V23H29v1.008H3Z"/>
</svg>
