<svg id="Contact_Form_7_Pro" data-name="Contact Form 7 Pro" xmlns="http://www.w3.org/2000/svg" width="32" height="32" viewBox="0 0 32 32">
  <metadata><?xpacket begin="﻿" id="W5M0MpCehiHzreSzNTczkc9d"?>
<x:xmpmeta xmlns:x="adobe:ns:meta/" x:xmptk="Adobe XMP Core 5.6-c142 79.160924, 2017/07/13-01:06:39        ">
   <rdf:RDF xmlns:rdf="http://www.w3.org/1999/02/22-rdf-syntax-ns#">
      <rdf:Description rdf:about=""/>
   </rdf:RDF>
</x:xmpmeta>
                                                                                                    
                                                                                                    
                                                                                                    
                                                                                                    
                                                                                                    
                                                                                                    
                                                                                                    
                                                                                                    
                                                                                                    
                                                                                                    
                                                                                                    
                                                                                                    
                                                                                                    
                                                                                                    
                                                                                                    
                                                                                                    
                                                                                                    
                                                                                                    
                                                                                                    
                                                                                                    
                           
<?xpacket end="w"?></metadata>
<defs>
    <style>
      .cls-1 {
        fill: #ffae00;
      }

      .cls-2 {
        fill: #2f2f36;
        fill-rule: evenodd;
      }
    </style>
  </defs>
  <rect id="BG_Shape" data-name="BG Shape" class="cls-1" width="32" height="32" rx="3" ry="3"/>
  <path id="PRO_copy" data-name="PRO copy" class="cls-2" d="M9.787,23.32a3.259,3.259,0,0,0,2.207-.706,2.529,2.529,0,0,0,0-3.722,3.243,3.243,0,0,0-2.207-.712H6.612V26H8.433V23.32H9.787ZM8.433,19.576H9.787a1.167,1.167,0,0,1,.9.333,1.207,1.207,0,0,1,.309.854,1.163,1.163,0,0,1-.309.835,1.183,1.183,0,0,1-.9.325H8.433V19.576ZM16.683,23a1.173,1.173,0,0,1,.865.3,1.157,1.157,0,0,1,.3.854v0.473a5.037,5.037,0,0,0,.067.784,0.893,0.893,0,0,0,.282.591h1.869V25.893a0.924,0.924,0,0,1-.317-0.559,3.117,3.117,0,0,1-.091-0.7V24.142a2.1,2.1,0,0,0-.314-1.184,1.75,1.75,0,0,0-1.034-.68,2.266,2.266,0,0,0,.943-0.709,1.712,1.712,0,0,0,.32-1.042,2.073,2.073,0,0,0-.795-1.719,3.381,3.381,0,0,0-2.154-.628H13.611V26h1.821V23h1.251Zm-1.251-3.427h1.187a1.149,1.149,0,0,1,.84.293,1.032,1.032,0,0,1,.3.771,0.894,0.894,0,0,1-.29.717,1.249,1.249,0,0,1-.838.25h-1.2v-2.03Zm11.688,1.81a3.255,3.255,0,0,0-.924-2.379,3.212,3.212,0,0,0-2.4-.94,3.216,3.216,0,0,0-2.4.94,3.26,3.26,0,0,0-.921,2.379v1.407a3.188,3.188,0,0,0,3.335,3.319,3.2,3.2,0,0,0,2.393-.937,3.268,3.268,0,0,0,.916-2.382V21.386Zm-1.81,1.407a2.292,2.292,0,0,1-.392,1.386,1.29,1.29,0,0,1-1.106.537,1.318,1.318,0,0,1-1.131-.537,2.281,2.281,0,0,1-.395-1.386V21.376A2.282,2.282,0,0,1,22.675,20a1.438,1.438,0,0,1,2.24,0,2.262,2.262,0,0,1,.395,1.375v1.418Z"/>
  <path id="_7_copy" data-name="7 copy" class="cls-2" d="M21.07,8.2H12.677V9.1h7.3A20.993,20.993,0,0,0,16.9,14.044a20.153,20.153,0,0,0-1.529,5.884L15.278,21h1.055l0.1-1.072A20.311,20.311,0,0,1,17.9,14.1a20.356,20.356,0,0,1,3.173-5V8.2Z"/>
</svg>
