<svg id="Counter" xmlns="http://www.w3.org/2000/svg" width="32" height="32" viewBox="0 0 32 32">
  <metadata><?xpacket begin="﻿" id="W5M0MpCehiHzreSzNTczkc9d"?>
<x:xmpmeta xmlns:x="adobe:ns:meta/" x:xmptk="Adobe XMP Core 5.6-c142 79.160924, 2017/07/13-01:06:39        ">
   <rdf:RDF xmlns:rdf="http://www.w3.org/1999/02/22-rdf-syntax-ns#">
      <rdf:Description rdf:about=""/>
   </rdf:RDF>
</x:xmpmeta>
                                                                                                    
                                                                                                    
                                                                                                    
                                                                                                    
                                                                                                    
                                                                                                    
                                                                                                    
                                                                                                    
                                                                                                    
                                                                                                    
                                                                                                    
                                                                                                    
                                                                                                    
                                                                                                    
                                                                                                    
                                                                                                    
                                                                                                    
                                                                                                    
                                                                                                    
                                                                                                    
                           
<?xpacket end="w"?></metadata>
<defs>
    <style>
      .cls-1 {
        fill: #ffae00;
      }

      .cls-2 {
        fill: #2f2f36;
        fill-rule: evenodd;
      }
    </style>
  </defs>
  <rect id="BG_Shape" data-name="BG Shape" class="cls-1" width="32" height="32" rx="3" ry="3"/>
  <path id="_10_copy" data-name="10+ copy" class="cls-2" d="M10.783,11.752l-4.2.647V13.91H8.644V21h2.139V11.752Zm9.394,3.656a4.065,4.065,0,0,0-.873-2.825,3.024,3.024,0,0,0-2.352-.959,3.007,3.007,0,0,0-2.349.955,4.092,4.092,0,0,0-.863,2.828V17.35a4.072,4.072,0,0,0,.87,2.828,3.027,3.027,0,0,0,2.355.955,3.012,3.012,0,0,0,2.342-.955,4.073,4.073,0,0,0,.87-2.828V15.408Zm-2.139,2.076a3.189,3.189,0,0,1-.273,1.539,0.876,0.876,0,0,1-.8.46,0.886,0.886,0,0,1-.812-0.46,3.188,3.188,0,0,1-.273-1.539V15.262a3.187,3.187,0,0,1,.27-1.523,0.873,0.873,0,0,1,.8-0.463,0.889,0.889,0,0,1,.806.463,3.1,3.1,0,0,1,.279,1.523v2.222Zm7.141-4.139h-2v2.412H21.009v1.835H23.18v2.482h2V17.591h2.165V15.757H25.179V13.345Z"/>
</svg>
