<svg id="Countdown" xmlns="http://www.w3.org/2000/svg" width="32" height="32" viewBox="0 0 32 32">
  <metadata><?xpacket begin="﻿" id="W5M0MpCehiHzreSzNTczkc9d"?>
<x:xmpmeta xmlns:x="adobe:ns:meta/" x:xmptk="Adobe XMP Core 5.6-c142 79.160924, 2017/07/13-01:06:39        ">
   <rdf:RDF xmlns:rdf="http://www.w3.org/1999/02/22-rdf-syntax-ns#">
      <rdf:Description rdf:about=""/>
   </rdf:RDF>
</x:xmpmeta>
                                                                                                    
                                                                                                    
                                                                                                    
                                                                                                    
                                                                                                    
                                                                                                    
                                                                                                    
                                                                                                    
                                                                                                    
                                                                                                    
                                                                                                    
                                                                                                    
                                                                                                    
                                                                                                    
                                                                                                    
                                                                                                    
                                                                                                    
                                                                                                    
                                                                                                    
                                                                                                    
                           
<?xpacket end="w"?></metadata>
<defs>
    <style>
      .cls-1 {
        fill: #ffae00;
      }

      .cls-2 {
        fill: #2f2f36;
        fill-rule: evenodd;
      }
    </style>
  </defs>
  <rect id="BG_Shape" data-name="BG Shape" class="cls-1" width="32" height="32" rx="3" ry="3"/>
  <path id="Forma_1" data-name="Forma 1" class="cls-2" d="M7,16.542A9.5,9.5,0,1,0,23.234,9.874l0.746-.743,0.346,0.344a0.749,0.749,0,0,0,1.056,0,0.741,0.741,0,0,0,0-1.051L23.652,6.7a0.749,0.749,0,0,0-1.056,0,0.741,0.741,0,0,0,0,1.051L22.943,8.1l-0.819.815A9.426,9.426,0,0,0,17.264,7.12V6.486H18.92A0.743,0.743,0,1,0,18.92,5H14.007a0.743,0.743,0,1,0,0,1.486h1.765V7.12A9.48,9.48,0,0,0,7,16.542Zm9.5-7.972A7.991,7.991,0,1,1,8.474,16.56,8.021,8.021,0,0,1,16.5,8.569Zm0,8.588h3.185a0.743,0.743,0,1,0,0-1.486H17.246V11.849a0.746,0.746,0,0,0-1.492,0v4.584A0.733,0.733,0,0,0,16.5,17.158Z"/>
  <path id="Forma_1_copy" data-name="Forma 1 copy" class="cls-2" d="M7,16.542A9.5,9.5,0,1,0,23.234,9.874l0.746-.743,0.346,0.344a0.749,0.749,0,0,0,1.056,0,0.741,0.741,0,0,0,0-1.051L23.652,6.7a0.749,0.749,0,0,0-1.056,0,0.741,0.741,0,0,0,0,1.051L22.943,8.1l-0.819.815A9.426,9.426,0,0,0,17.264,7.12V6.486H18.92A0.743,0.743,0,1,0,18.92,5H14.007a0.743,0.743,0,1,0,0,1.486h1.765V7.12A9.48,9.48,0,0,0,7,16.542Zm9.5-7.972A7.991,7.991,0,1,1,8.474,16.56,8.021,8.021,0,0,1,16.5,8.569Zm0,8.588h3.185a0.743,0.743,0,1,0,0-1.486H17.246V11.849a0.746,0.746,0,0,0-1.492,0v4.584A0.733,0.733,0,0,0,16.5,17.158Z"/>
</svg>
