<svg id="Gallery" xmlns="http://www.w3.org/2000/svg" width="32" height="32" viewBox="0 0 32 32">
  <metadata><?xpacket begin="﻿" id="W5M0MpCehiHzreSzNTczkc9d"?>
<x:xmpmeta xmlns:x="adobe:ns:meta/" x:xmptk="Adobe XMP Core 5.6-c142 79.160924, 2017/07/13-01:06:39        ">
   <rdf:RDF xmlns:rdf="http://www.w3.org/1999/02/22-rdf-syntax-ns#">
      <rdf:Description rdf:about=""/>
   </rdf:RDF>
</x:xmpmeta>
                                                                                                    
                                                                                                    
                                                                                                    
                                                                                                    
                                                                                                    
                                                                                                    
                                                                                                    
                                                                                                    
                                                                                                    
                                                                                                    
                                                                                                    
                                                                                                    
                                                                                                    
                                                                                                    
                                                                                                    
                                                                                                    
                                                                                                    
                                                                                                    
                                                                                                    
                                                                                                    
                           
<?xpacket end="w"?></metadata>
<defs>
    <style>
      .cls-1 {
        fill: #ffae00;
      }

      .cls-2 {
        fill: #2f2f36;
        fill-rule: evenodd;
      }
    </style>
  </defs>
  <rect id="BG_Shape" data-name="BG Shape" class="cls-1" width="32" height="32" rx="3" ry="3"/>
  <path id="Forma_1" data-name="Forma 1" class="cls-2" d="M8.509,15.633H15.2a0.612,0.612,0,0,0,.619-0.619V8.323A0.612,0.612,0,0,0,15.2,7.7H8.509a0.612,0.612,0,0,0-.619.619v6.69A0.632,0.632,0,0,0,8.509,15.633Zm0.619-6.69h5.452v5.452H9.129V8.943Zm16.31-.619A0.612,0.612,0,0,0,24.82,7.7h-6.69a0.612,0.612,0,0,0-.619.619v6.69a0.612,0.612,0,0,0,.619.619h6.69a0.612,0.612,0,0,0,.619-0.619V8.323ZM24.2,14.395H18.749V8.943H24.2v5.452ZM8.509,25.253H15.2a0.612,0.612,0,0,0,.619-0.619v-6.69a0.612,0.612,0,0,0-.619-0.619H8.509a0.612,0.612,0,0,0-.619.619v6.69A0.632,0.632,0,0,0,8.509,25.253Zm0.619-6.69h5.452v5.452H9.129V18.563ZM24.82,17.324h-6.69a0.612,0.612,0,0,0-.619.619v6.69a0.612,0.612,0,0,0,.619.619h6.69a0.612,0.612,0,0,0,.619-0.619v-6.69A0.632,0.632,0,0,0,24.82,17.324ZM24.2,24.015H18.749V18.563H24.2v5.452Z"/>
  <path id="Forma_1_copy_2" data-name="Forma 1 copy 2" class="cls-2" d="M8.509,15.633H15.2a0.612,0.612,0,0,0,.619-0.619V8.323A0.612,0.612,0,0,0,15.2,7.7H8.509a0.612,0.612,0,0,0-.619.619v6.69A0.632,0.632,0,0,0,8.509,15.633Zm0.619-6.69h5.452v5.452H9.129V8.943Zm16.31-.619A0.612,0.612,0,0,0,24.82,7.7h-6.69a0.612,0.612,0,0,0-.619.619v6.69a0.612,0.612,0,0,0,.619.619h6.69a0.612,0.612,0,0,0,.619-0.619V8.323ZM24.2,14.395H18.749V8.943H24.2v5.452ZM8.509,25.253H15.2a0.612,0.612,0,0,0,.619-0.619v-6.69a0.612,0.612,0,0,0-.619-0.619H8.509a0.612,0.612,0,0,0-.619.619v6.69A0.632,0.632,0,0,0,8.509,25.253Zm0.619-6.69h5.452v5.452H9.129V18.563ZM24.82,17.324h-6.69a0.612,0.612,0,0,0-.619.619v6.69a0.612,0.612,0,0,0,.619.619h6.69a0.612,0.612,0,0,0,.619-0.619v-6.69A0.632,0.632,0,0,0,24.82,17.324ZM24.2,24.015H18.749V18.563H24.2v5.452Z"/>
</svg>
