<svg id="Map" xmlns="http://www.w3.org/2000/svg" width="32" height="32" viewBox="0 0 32 32">
  <metadata><?xpacket begin="﻿" id="W5M0MpCehiHzreSzNTczkc9d"?>
<x:xmpmeta xmlns:x="adobe:ns:meta/" x:xmptk="Adobe XMP Core 5.6-c142 79.160924, 2017/07/13-01:06:39        ">
   <rdf:RDF xmlns:rdf="http://www.w3.org/1999/02/22-rdf-syntax-ns#">
      <rdf:Description rdf:about=""/>
   </rdf:RDF>
</x:xmpmeta>
                                                                                                    
                                                                                                    
                                                                                                    
                                                                                                    
                                                                                                    
                                                                                                    
                                                                                                    
                                                                                                    
                                                                                                    
                                                                                                    
                                                                                                    
                                                                                                    
                                                                                                    
                                                                                                    
                                                                                                    
                                                                                                    
                                                                                                    
                                                                                                    
                                                                                                    
                                                                                                    
                           
<?xpacket end="w"?></metadata>
<defs>
    <style>
      .cls-1 {
        fill: #ffae00;
      }

      .cls-2 {
        fill: #2f2f36;
        fill-rule: evenodd;
      }
    </style>
  </defs>
  <rect id="BG_Shape" data-name="BG Shape" class="cls-1" width="32" height="32" rx="3" ry="3"/>
  <path class="cls-2" d="M16,5.869A7.836,7.836,0,0,0,8.069,13.59a7.406,7.406,0,0,0,.141,1.45c0,0.028.021,0.113,0.054,0.258a7.469,7.469,0,0,0,.531,1.522,21.741,21.741,0,0,0,6.853,8.189,0.573,0.573,0,0,0,.7,0,21.782,21.782,0,0,0,6.853-8.189,7.388,7.388,0,0,0,.531-1.522c0.033-.145.05-0.23,0.054-0.258a7.74,7.74,0,0,0,.141-1.45A7.849,7.849,0,0,0,16,5.869Zm5.9,9.057c0,0.007,0,.014,0,0.021s-0.015.071-.033,0.153v0.007a5.558,5.558,0,0,1-.406,1.162s0,0.011-.007.014A17.9,17.9,0,0,1,16,22.9a17.9,17.9,0,0,1-5.449-6.615s0-.011-0.007-0.014a5.93,5.93,0,0,1-.406-1.162V15.1c-0.022-.082-0.029-0.135-0.033-0.153s0-.014,0-0.025a5.672,5.672,0,0,1-.11-1.112,6.01,6.01,0,0,1,12.017,0A5.655,5.655,0,0,1,21.895,14.926ZM16,9.562a4.328,4.328,0,1,0,4.442,4.327A4.392,4.392,0,0,0,16,9.562Zm0,7.018a2.692,2.692,0,1,1,2.763-2.691A2.731,2.731,0,0,1,15.994,16.581Z"/>
</svg>
