<svg id="Gradient_title" data-name="Gradient title" xmlns="http://www.w3.org/2000/svg" width="32" height="32" viewBox="0 0 32 32">
  <metadata><?xpacket begin="﻿" id="W5M0MpCehiHzreSzNTczkc9d"?>
<x:xmpmeta xmlns:x="adobe:ns:meta/" x:xmptk="Adobe XMP Core 5.6-c142 79.160924, 2017/07/13-01:06:39        ">
   <rdf:RDF xmlns:rdf="http://www.w3.org/1999/02/22-rdf-syntax-ns#">
      <rdf:Description rdf:about=""/>
   </rdf:RDF>
</x:xmpmeta>
                                                                                                    
                                                                                                    
                                                                                                    
                                                                                                    
                                                                                                    
                                                                                                    
                                                                                                    
                                                                                                    
                                                                                                    
                                                                                                    
                                                                                                    
                                                                                                    
                                                                                                    
                                                                                                    
                                                                                                    
                                                                                                    
                                                                                                    
                                                                                                    
                                                                                                    
                                                                                                    
                           
<?xpacket end="w"?></metadata>
<defs>
    <style>
      .cls-1 {
        fill: #ffae00;
      }

      .cls-2 {
        fill: #2f2f36;
        fill-rule: evenodd;
      }
    </style>
  </defs>
  <rect id="BG_Shape" data-name="BG Shape" class="cls-1" width="32" height="32" rx="3" ry="3"/>
  <path id="GT_copy" data-name="GT copy" class="cls-2" d="M16.234,12.2a1.158,1.158,0,0,1-.279.492,0.5,0.5,0,0,1-.33.13,3.763,3.763,0,0,1-.739-0.238,5.926,5.926,0,0,0-.9-0.289,6,6,0,0,0-1.155-.1,4.7,4.7,0,0,0-3.434,1.339,4.42,4.42,0,0,0-1.365,3.282,4.273,4.273,0,0,0,.444,1.961,4.136,4.136,0,0,0,.968,1.222,5.082,5.082,0,0,0,1.428.876A5.377,5.377,0,0,0,12.9,21.2a8.993,8.993,0,0,0,1.85-.187,8.472,8.472,0,0,0,1.717-.555V18.67a1.794,1.794,0,0,1,.057-0.59,0.649,0.649,0,0,1,.289-0.327,1.831,1.831,0,0,1,.663-0.13V17.388H13.3v0.235h0.222a1.084,1.084,0,0,1,.53.121,0.644,0.644,0,0,1,.289.27,1.908,1.908,0,0,1,.07.657v1.79a4.537,4.537,0,0,1-.67.194,3.193,3.193,0,0,1-.638.067,2.7,2.7,0,0,1-1.546-.438,2.465,2.465,0,0,1-.943-1.371,7.283,7.283,0,0,1-.292-2.171,7.492,7.492,0,0,1,.267-1.993,2.937,2.937,0,0,1,.908-1.514,2.4,2.4,0,0,1,1.606-.543,3,3,0,0,1,1.86.648,3.868,3.868,0,0,1,1.276,1.892h0.235V12.2H16.234Zm1.847,0.2v2.33h0.241a2.434,2.434,0,0,1,.7-1.466,1.809,1.809,0,0,1,1.263-.368h0.622v6.64a2.615,2.615,0,0,1-.07.8,0.606,0.606,0,0,1-.26.3,1.19,1.19,0,0,1-.6.133H19.688V21h4.507V20.765H23.909a1.155,1.155,0,0,1-.581-0.124,0.654,0.654,0,0,1-.286-0.289,2.71,2.71,0,0,1-.073-0.825v-6.64H23.61a2.174,2.174,0,0,1,.844.114,1.736,1.736,0,0,1,.679.562,3.682,3.682,0,0,1,.451,1.159h0.229v-2.33H18.082Z"/>
  <path id="GT_copy_2" data-name="GT copy 2" class="cls-2" d="M16.234,12.2a1.158,1.158,0,0,1-.279.492,0.5,0.5,0,0,1-.33.13,3.763,3.763,0,0,1-.739-0.238,5.926,5.926,0,0,0-.9-0.289,6,6,0,0,0-1.155-.1,4.7,4.7,0,0,0-3.434,1.339,4.42,4.42,0,0,0-1.365,3.282,4.273,4.273,0,0,0,.444,1.961,4.136,4.136,0,0,0,.968,1.222,5.082,5.082,0,0,0,1.428.876A5.377,5.377,0,0,0,12.9,21.2a8.993,8.993,0,0,0,1.85-.187,8.472,8.472,0,0,0,1.717-.555V18.67a1.794,1.794,0,0,1,.057-0.59,0.649,0.649,0,0,1,.289-0.327,1.831,1.831,0,0,1,.663-0.13V17.388H13.3v0.235h0.222a1.084,1.084,0,0,1,.53.121,0.644,0.644,0,0,1,.289.27,1.908,1.908,0,0,1,.07.657v1.79a4.537,4.537,0,0,1-.67.194,3.193,3.193,0,0,1-.638.067,2.7,2.7,0,0,1-1.546-.438,2.465,2.465,0,0,1-.943-1.371,7.283,7.283,0,0,1-.292-2.171,7.492,7.492,0,0,1,.267-1.993,2.937,2.937,0,0,1,.908-1.514,2.4,2.4,0,0,1,1.606-.543,3,3,0,0,1,1.86.648,3.868,3.868,0,0,1,1.276,1.892h0.235V12.2H16.234Zm1.847,0.2v2.33h0.241a2.434,2.434,0,0,1,.7-1.466,1.809,1.809,0,0,1,1.263-.368h0.622v6.64a2.615,2.615,0,0,1-.07.8,0.606,0.606,0,0,1-.26.3,1.19,1.19,0,0,1-.6.133H19.688V21h4.507V20.765H23.909a1.155,1.155,0,0,1-.581-0.124,0.654,0.654,0,0,1-.286-0.289,2.71,2.71,0,0,1-.073-0.825v-6.64H23.61a2.174,2.174,0,0,1,.844.114,1.736,1.736,0,0,1,.679.562,3.682,3.682,0,0,1,.451,1.159h0.229v-2.33H18.082Z"/>
</svg>
