<svg id="Historyline" xmlns="http://www.w3.org/2000/svg" width="32" height="32" viewBox="0 0 32 32">
  <metadata><?xpacket begin="﻿" id="W5M0MpCehiHzreSzNTczkc9d"?>
<x:xmpmeta xmlns:x="adobe:ns:meta/" x:xmptk="Adobe XMP Core 5.6-c142 79.160924, 2017/07/13-01:06:39        ">
   <rdf:RDF xmlns:rdf="http://www.w3.org/1999/02/22-rdf-syntax-ns#">
      <rdf:Description rdf:about=""/>
   </rdf:RDF>
</x:xmpmeta>
                                                                                                    
                                                                                                    
                                                                                                    
                                                                                                    
                                                                                                    
                                                                                                    
                                                                                                    
                                                                                                    
                                                                                                    
                                                                                                    
                                                                                                    
                                                                                                    
                                                                                                    
                                                                                                    
                                                                                                    
                                                                                                    
                                                                                                    
                                                                                                    
                                                                                                    
                                                                                                    
                           
<?xpacket end="w"?></metadata>
<defs>
    <style>
      .cls-1 {
        fill: #ffae00;
      }

      .cls-2, .cls-3 {
        fill: #282828;
      }

      .cls-2 {
        fill-rule: evenodd;
      }

      .cls-3 {
        opacity: 0.5;
      }
    </style>
  </defs>
  <rect id="BG_Shape" data-name="BG Shape" class="cls-1" width="32" height="32" rx="3" ry="3"/>
  <path class="cls-2" d="M14,11V10H26v1H14Zm0,5V15H26v1H14Zm0,5V20H26v1H14ZM8,10v1H6V10H8Zm0,5v1H6V15H8Zm0,5v1H6V20H8Z"/>
  <path id="Shape_7_copy" data-name="Shape 7 copy" class="cls-2" d="M14,12V11H26v1H14Zm0,5V16H26v1H14Zm0,5V21H26v1H14ZM8,11v1H6V11H8Zm0,5v1H6V16H8Zm0,5v1H6V21H8Z"/>
  <rect class="cls-3" x="11" y="8" width="1" height="16"/>
  <rect id="Shape_7_copy_2" data-name="Shape 7 copy 2" class="cls-3" x="10" y="8" width="1" height="16"/>
</svg>
