<svg id="Login.Register" xmlns="http://www.w3.org/2000/svg" width="32" height="32" viewBox="0 0 32 32">
  <metadata><?xpacket begin="﻿" id="W5M0MpCehiHzreSzNTczkc9d"?>
<x:xmpmeta xmlns:x="adobe:ns:meta/" x:xmptk="Adobe XMP Core 5.6-c142 79.160924, 2017/07/13-01:06:39        ">
   <rdf:RDF xmlns:rdf="http://www.w3.org/1999/02/22-rdf-syntax-ns#">
      <rdf:Description rdf:about=""/>
   </rdf:RDF>
</x:xmpmeta>
                                                                                                    
                                                                                                    
                                                                                                    
                                                                                                    
                                                                                                    
                                                                                                    
                                                                                                    
                                                                                                    
                                                                                                    
                                                                                                    
                                                                                                    
                                                                                                    
                                                                                                    
                                                                                                    
                                                                                                    
                                                                                                    
                                                                                                    
                                                                                                    
                                                                                                    
                                                                                                    
                           
<?xpacket end="w"?></metadata>
<defs>
    <style>
      .cls-1 {
        fill: #ffae00;
      }

      .cls-2 {
        fill: #2f2f36;
        fill-rule: evenodd;
      }
    </style>
  </defs>
  <rect id="BG_Shape" data-name="BG Shape" class="cls-1" width="32" height="32" rx="3" ry="3"/>
  <path id="Forma_1" data-name="Forma 1" class="cls-2" d="M14.213,19.843a0.539,0.539,0,0,0,0,.758,0.528,0.528,0,0,0,.751,0l4.665-3.7a0.621,0.621,0,0,0,0-.811l-4.665-3.7a0.528,0.528,0,0,0-.751,0,0.539,0.539,0,0,0,0,.758L15,14.964H5.532A3.843,3.843,0,0,0,4,16.5a3.844,3.844,0,0,0,1.531,1.535H15ZM20.874,8H12.25C11.077,8,9.125,9.96,9.125,11.144v2.143h2.062V11.144a1.067,1.067,0,0,1,1.062-1.071h8.624a1.067,1.067,0,0,1,1.062,1.071V21.856a1.067,1.067,0,0,1-1.062,1.071H12.25a1.067,1.067,0,0,1-1.062-1.071V19.713H9.125v2.142C9.125,23.039,11.077,25,12.25,25h8.624C22.048,25,24,23.039,24,21.856V11.144C24,9.96,22.048,8,20.874,8Z"/>
</svg>
