<svg id="Logo" xmlns="http://www.w3.org/2000/svg" width="32" height="32" viewBox="0 0 32 32">
  <defs>
    <style>
      .cls-1 {
        fill: #ffae00;
      }

      .cls-2 {
        fill-rule: evenodd;
      }
    </style>
  </defs>
  <rect id="BG_Shape" data-name="BG Shape" class="cls-1" width="32" height="32" rx="3" ry="3"/>
  <path id="LO_GO_copy" data-name="LO GO copy" class="cls-2" d="M10.95,6.564H8.928V14.95h5.541V13.395H10.95V6.564Zm11.694,3.98A4.824,4.824,0,0,0,22.175,8.4a3.416,3.416,0,0,0-1.3-1.443,3.836,3.836,0,0,0-3.822.006,3.355,3.355,0,0,0-1.3,1.454,4.968,4.968,0,0,0-.452,2.174v0.472a4.8,4.8,0,0,0,.487,2.1,3.357,3.357,0,0,0,1.293,1.408,3.651,3.651,0,0,0,1.9.493,3.6,3.6,0,0,0,1.909-.51A3.362,3.362,0,0,0,22.189,13.1a4.946,4.946,0,0,0,.455-2.171V10.544Zm-2.056.42a3.528,3.528,0,0,1-.421,1.872,1.321,1.321,0,0,1-1.181.651,1.337,1.337,0,0,1-1.215-.662,3.626,3.626,0,0,1-.409-1.895l0.006-.616q0.086-2.281,1.607-2.281a1.339,1.339,0,0,1,1.2.648,3.527,3.527,0,0,1,.418,1.9v0.386Zm-5.818,9.5H11.343v1.388h1.405v1.3a1.7,1.7,0,0,1-1.175.351,1.517,1.517,0,0,1-1.351-.631,3.371,3.371,0,0,1-.429-1.886V20.486a3.444,3.444,0,0,1,.42-1.843A1.319,1.319,0,0,1,11.389,18a1.45,1.45,0,0,1,.979.3,1.59,1.59,0,0,1,.449,1h1.947a3.039,3.039,0,0,0-1.011-2.14,3.715,3.715,0,0,0-2.433-.717,3.544,3.544,0,0,0-1.886.5,3.249,3.249,0,0,0-1.253,1.423,5,5,0,0,0-.438,2.163l0.006,0.726A4.08,4.08,0,0,0,8.8,24.057a3.512,3.512,0,0,0,2.632,1.008,5.89,5.89,0,0,0,1.97-.317,3.25,3.25,0,0,0,1.365-.835V20.469Zm8.866,0.075a4.824,4.824,0,0,0-.469-2.145,3.415,3.415,0,0,0-1.3-1.443,3.836,3.836,0,0,0-3.822.006,3.355,3.355,0,0,0-1.3,1.454A4.966,4.966,0,0,0,16.3,20.59v0.472a4.8,4.8,0,0,0,.487,2.1,3.357,3.357,0,0,0,1.293,1.408,3.651,3.651,0,0,0,1.9.492,3.6,3.6,0,0,0,1.909-.51A3.362,3.362,0,0,0,23.182,23.1a4.946,4.946,0,0,0,.455-2.171V20.544Zm-2.056.421a3.528,3.528,0,0,1-.421,1.872,1.321,1.321,0,0,1-1.181.651,1.337,1.337,0,0,1-1.215-.662,3.626,3.626,0,0,1-.409-1.895l0.006-.616q0.086-2.281,1.607-2.281a1.34,1.34,0,0,1,1.2.648,3.527,3.527,0,0,1,.418,1.9v0.386Z"/>
</svg>
