<svg id="Music_Player" data-name="Music Player" xmlns="http://www.w3.org/2000/svg" width="32" height="32" viewBox="0 0 32 32">
  <metadata><?xpacket begin="﻿" id="W5M0MpCehiHzreSzNTczkc9d"?>
<x:xmpmeta xmlns:x="adobe:ns:meta/" x:xmptk="Adobe XMP Core 5.6-c142 79.160924, 2017/07/13-01:06:39        ">
   <rdf:RDF xmlns:rdf="http://www.w3.org/1999/02/22-rdf-syntax-ns#">
      <rdf:Description rdf:about=""/>
   </rdf:RDF>
</x:xmpmeta>
                                                                                                    
                                                                                                    
                                                                                                    
                                                                                                    
                                                                                                    
                                                                                                    
                                                                                                    
                                                                                                    
                                                                                                    
                                                                                                    
                                                                                                    
                                                                                                    
                                                                                                    
                                                                                                    
                                                                                                    
                                                                                                    
                                                                                                    
                                                                                                    
                                                                                                    
                                                                                                    
                           
<?xpacket end="w"?></metadata>
<defs>
    <style>
      .cls-1 {
        fill: #ffae00;
      }

      .cls-2 {
        fill: #2f2f36;
        fill-rule: evenodd;
      }
    </style>
  </defs>
  <rect id="BG_Shape" data-name="BG Shape" class="cls-1" width="32" height="32" rx="3" ry="3"/>
  <path class="cls-2" d="M24,12.17V8.519a0.545,0.545,0,0,0-.217-0.434,0.539,0.539,0,0,0-.478-0.08L12.528,11.461a0.539,0.539,0,0,0-.371.514V22.62a3.725,3.725,0,0,0-4.19.072,2.183,2.183,0,0,0,0,3.627,3.714,3.714,0,0,0,4.288,0,2.269,2.269,0,0,0,.967-1.813V16.024l9.71-3.117v6.241a3.725,3.725,0,0,0-4.19.072,2.183,2.183,0,0,0,0,3.627,3.714,3.714,0,0,0,4.288,0A2.269,2.269,0,0,0,24,21.034V12.17ZM10.112,25.924c-1.11,0-2.046-.65-2.046-1.419S9,23.086,10.112,23.086s2.045,0.65,2.045,1.419S11.221,25.924,10.112,25.924Zm3.112-11.032V12.365l9.71-3.113v2.527Zm7.669,7.561c-1.11,0-2.046-.65-2.046-1.419s0.936-1.419,2.046-1.419,2.046,0.65,2.046,1.419A1.852,1.852,0,0,1,20.892,22.453Z"/>
  <path id="Shape_1_copy_10" data-name="Shape 1 copy 10" class="cls-2" d="M25,12.17V8.519a0.545,0.545,0,0,0-.217-0.434,0.539,0.539,0,0,0-.478-0.08L13.528,11.461a0.539,0.539,0,0,0-.371.514V22.62a3.725,3.725,0,0,0-4.19.072,2.183,2.183,0,0,0,0,3.627,3.714,3.714,0,0,0,4.289,0,2.268,2.268,0,0,0,.967-1.813V16.024l9.71-3.117v6.241a3.725,3.725,0,0,0-4.19.072,2.183,2.183,0,0,0,0,3.627,3.714,3.714,0,0,0,4.288,0A2.269,2.269,0,0,0,25,21.034V12.17ZM11.112,25.924c-1.11,0-2.046-.65-2.046-1.419S10,23.086,11.112,23.086s2.045,0.65,2.045,1.419S12.221,25.924,11.112,25.924Zm3.112-11.032V12.365l9.71-3.113v2.527Zm7.669,7.561c-1.11,0-2.046-.65-2.046-1.419s0.936-1.419,2.046-1.419,2.046,0.65,2.046,1.419A1.852,1.852,0,0,1,21.892,22.453Z"/>
</svg>
