<svg id="News_Ticker" data-name="News Ticker" xmlns="http://www.w3.org/2000/svg" width="32" height="32" viewBox="0 0 32 32">
  <metadata><?xpacket begin="﻿" id="W5M0MpCehiHzreSzNTczkc9d"?>
<x:xmpmeta xmlns:x="adobe:ns:meta/" x:xmptk="Adobe XMP Core 5.6-c142 79.160924, 2017/07/13-01:06:39        ">
   <rdf:RDF xmlns:rdf="http://www.w3.org/1999/02/22-rdf-syntax-ns#">
      <rdf:Description rdf:about=""/>
   </rdf:RDF>
</x:xmpmeta>
                                                                                                    
                                                                                                    
                                                                                                    
                                                                                                    
                                                                                                    
                                                                                                    
                                                                                                    
                                                                                                    
                                                                                                    
                                                                                                    
                                                                                                    
                                                                                                    
                                                                                                    
                                                                                                    
                                                                                                    
                                                                                                    
                                                                                                    
                                                                                                    
                                                                                                    
                                                                                                    
                           
<?xpacket end="w"?></metadata>
<defs>
    <style>
      .cls-1 {
        fill: #ffae00;
      }

      .cls-2 {
        fill: #2f2f36;
        fill-rule: evenodd;
      }
    </style>
  </defs>
  <rect id="BG_Shape" data-name="BG Shape" class="cls-1" width="32" height="32" rx="3" ry="3"/>
  <path id="Forma_1" data-name="Forma 1" class="cls-2" d="M12.252,26.2a0.645,0.645,0,0,0,.234.115,0.677,0.677,0,0,0,.639-0.174l9.808-9.092a0.761,0.761,0,0,0,.235-0.724,0.7,0.7,0,0,0-.5-0.535L18.3,14.649l3.075-6.836A0.755,0.755,0,0,0,21.2,6.928a0.66,0.66,0,0,0-.86.007L10.312,15.094a0.756,0.756,0,0,0-.273.734,0.7,0.7,0,0,0,.507.557l4.831,1.257-3.32,7.67A0.721,0.721,0,0,0,12.252,26.2Zm0.035-10.888L18.9,9.93l-2.228,4.942a0.8,0.8,0,0,0,0,.634,0.7,0.7,0,0,0,.444.392l3.9,1-6.382,5.927,2.332-5.419a0.745,0.745,0,0,0,0-.616,0.622,0.622,0,0,0-.432-0.37Z"/>
  <path id="Forma_1_copy_3" data-name="Forma 1 copy 3" class="cls-2" d="M12.252,26.2a0.645,0.645,0,0,0,.234.115,0.677,0.677,0,0,0,.639-0.174l9.808-9.092a0.761,0.761,0,0,0,.235-0.724,0.7,0.7,0,0,0-.5-0.535L18.3,14.649l3.075-6.836A0.755,0.755,0,0,0,21.2,6.928a0.66,0.66,0,0,0-.86.007L10.312,15.094a0.756,0.756,0,0,0-.273.734,0.7,0.7,0,0,0,.507.557l4.831,1.257-3.32,7.67A0.721,0.721,0,0,0,12.252,26.2Zm0.035-10.888L18.9,9.93l-2.228,4.942a0.8,0.8,0,0,0,0,.634,0.7,0.7,0,0,0,.444.392l3.9,1-6.382,5.927,2.332-5.419a0.745,0.745,0,0,0,0-.616,0.622,0.622,0,0,0-.432-0.37Z"/>
</svg>
