<svg id="Parallax_Group" data-name="Parallax Group" xmlns="http://www.w3.org/2000/svg" width="32" height="32" viewBox="0 0 32 32">
  <metadata><?xpacket begin="﻿" id="W5M0MpCehiHzreSzNTczkc9d"?>
<x:xmpmeta xmlns:x="adobe:ns:meta/" x:xmptk="Adobe XMP Core 5.6-c142 79.160924, 2017/07/13-01:06:39        ">
   <rdf:RDF xmlns:rdf="http://www.w3.org/1999/02/22-rdf-syntax-ns#">
      <rdf:Description rdf:about=""/>
   </rdf:RDF>
</x:xmpmeta>
                                                                                                    
                                                                                                    
                                                                                                    
                                                                                                    
                                                                                                    
                                                                                                    
                                                                                                    
                                                                                                    
                                                                                                    
                                                                                                    
                                                                                                    
                                                                                                    
                                                                                                    
                                                                                                    
                                                                                                    
                                                                                                    
                                                                                                    
                                                                                                    
                                                                                                    
                                                                                                    
                           
<?xpacket end="w"?></metadata>
<defs>
    <style>
      .cls-1 {
        fill: #ffae00;
      }

      .cls-2 {
        fill: #2f2f36;
        fill-rule: evenodd;
      }
    </style>
  </defs>
  <rect id="BG_Shape" data-name="BG Shape" class="cls-1" width="32" height="32" rx="3" ry="3"/>
  <path class="cls-2" d="M25,15.5a1.217,1.217,0,0,0-.552-1.059l-1.34-.795,1.34-.795h0a1.292,1.292,0,0,0,0-2.118L16.882,6.245a1.708,1.708,0,0,0-1.764,0L7.552,10.733a1.292,1.292,0,0,0,0,2.118l1.34,0.795-1.34.8a1.293,1.293,0,0,0,0,2.118l1.34,0.795-1.34.795a1.292,1.292,0,0,0,0,2.118l7.566,4.488a1.708,1.708,0,0,0,1.764,0l7.566-4.487a1.292,1.292,0,0,0,0-2.118l-1.34-.795,1.34-.795A1.217,1.217,0,0,0,25,15.5ZM7.922,11.973a0.221,0.221,0,0,1,0-.362l7.566-4.487a0.992,0.992,0,0,1,1.024,0l7.566,4.487a0.221,0.221,0,0,1,0,.362L16.512,16.46a0.991,0.991,0,0,1-1.024,0Zm16.156,7.054a0.221,0.221,0,0,1,0,.362l-7.566,4.487a0.991,0.991,0,0,1-1.024,0L7.922,19.389a0.221,0.221,0,0,1,0-.362l1.9-1.124,5.3,3.144a1.707,1.707,0,0,0,1.764,0l5.3-3.144Zm0-3.346-7.566,4.487a0.992,0.992,0,0,1-1.024,0L7.922,15.681a0.221,0.221,0,0,1,0-.362l1.9-1.124,5.3,3.144a1.707,1.707,0,0,0,1.764,0l5.3-3.144,1.9,1.124A0.221,0.221,0,0,1,24.078,15.681Z"/>
  <path id="Shape_1_copy_11" data-name="Shape 1 copy 11" class="cls-2" d="M25,16.5a1.217,1.217,0,0,0-.552-1.059l-1.34-.795,1.34-.795h0a1.292,1.292,0,0,0,0-2.118L16.882,7.245a1.708,1.708,0,0,0-1.764,0L7.552,11.733a1.292,1.292,0,0,0,0,2.118l1.34,0.795-1.34.8a1.293,1.293,0,0,0,0,2.118l1.34,0.795-1.34.795a1.292,1.292,0,0,0,0,2.118l7.566,4.488a1.708,1.708,0,0,0,1.764,0l7.566-4.488a1.292,1.292,0,0,0,0-2.118l-1.34-.795,1.34-.795A1.217,1.217,0,0,0,25,16.5ZM7.922,12.973a0.221,0.221,0,0,1,0-.362l7.566-4.487a0.992,0.992,0,0,1,1.024,0l7.566,4.487a0.221,0.221,0,0,1,0,.362L16.512,17.46a0.991,0.991,0,0,1-1.024,0Zm16.156,7.054a0.221,0.221,0,0,1,0,.362l-7.566,4.487a0.992,0.992,0,0,1-1.024,0L7.922,20.389a0.221,0.221,0,0,1,0-.362l1.9-1.124,5.3,3.144a1.708,1.708,0,0,0,1.764,0l5.3-3.144Zm0-3.346-7.566,4.487a0.992,0.992,0,0,1-1.024,0L7.922,16.681a0.221,0.221,0,0,1,0-.362l1.9-1.124,5.3,3.144a1.707,1.707,0,0,0,1.764,0l5.3-3.144,1.9,1.124A0.221,0.221,0,0,1,24.078,16.681Z"/>
</svg>
