<svg id="shopping_cart" data-name="shopping cart" xmlns="http://www.w3.org/2000/svg" width="32" height="32" viewBox="0 0 32 32">
  <defs>
    <style>
      .cls-1 {
        fill: #ffae00;
      }

      .cls-2 {
        fill-rule: evenodd;
      }
    </style>
  </defs>
  <rect id="BG_Shape" data-name="BG Shape" class="cls-1" width="32" height="32" rx="3" ry="3"/>
  <path id="Rounded_Rectangle_1" data-name="Rounded Rectangle 1" class="cls-2" d="M10.331,9.879h10.4A27.124,27.124,0,0,1,26,10.013a1.836,1.836,0,0,1,.357.491,2.349,2.349,0,0,1-.223,1.25c-0.277.977-.406,1.97-0.669,2.9-0.384,1.358-.567,2.749-0.937,4.061a2.673,2.673,0,0,1-.491,1.473c-0.5.343-2.285,0.179-3.124,0.178H13.857a10.711,10.711,0,0,1-2.9-.089c-0.687-.347-0.74-2.579-0.982-3.481C9.7,15.78,9.635,14.7,9.349,13.628c-0.59-2.2-.9-4.58-1.384-6.828A12.557,12.557,0,0,1,5.6,6.354a2.763,2.763,0,0,1-.848-0.179A2.683,2.683,0,0,1,4.4,5.684,2.531,2.531,0,0,1,4.485,4.97a1.991,1.991,0,0,1,.58-0.4,1.811,1.811,0,0,1,.893.134c0.716,0.184,1.47.232,2.142,0.4a2.205,2.205,0,0,1,1.294.4,3.737,3.737,0,0,1,.312,1.25c0.15,0.577.194,1.2,0.357,1.83A7.123,7.123,0,0,1,10.331,9.879Zm1.741,8.747H22.783V18.582h0.045a7.12,7.12,0,0,1,.4-1.741c0.3-1.054.37-2.069,0.67-3.124a11.4,11.4,0,0,0,.491-2.1h-13.7v0.089a9.846,9.846,0,0,1,.4,2.053c0.254,0.946.324,1.945,0.58,2.946A17.1,17.1,0,0,1,12.072,18.627Zm0.134,3.035a3.832,3.832,0,0,1,1.517.178,2.989,2.989,0,0,1,1.607,3.794,3.08,3.08,0,0,1-2.365,1.785,2.376,2.376,0,0,1-1.473-.268A2.875,2.875,0,0,1,9.84,23.715a3.134,3.134,0,0,1,1.607-1.83Zm8.524,0a3.884,3.884,0,0,1,1.428.134,2.99,2.99,0,0,1,1.651,3.972,3.087,3.087,0,0,1-2.276,1.651,2.39,2.39,0,0,1-1.294-.179,2.89,2.89,0,0,1-1.83-3.615,3.2,3.2,0,0,1,1.473-1.7C20.13,21.8,20.493,21.816,20.73,21.662ZM12.34,23.4c-0.115.086-.277,0.093-0.4,0.178a1.18,1.18,0,0,0-.357,1.384,1.088,1.088,0,0,0,1.473.625c0.965-.236.931-2.056-0.134-2.142A1.346,1.346,0,0,0,12.34,23.4Zm8.524,0a1.7,1.7,0,0,0-.8.759,1.206,1.206,0,0,0,1.383,1.517C22.752,25.3,22.638,23.342,20.864,23.4Z"/>
</svg>
