<svg id="Subscribe" xmlns="http://www.w3.org/2000/svg" width="32" height="32" viewBox="0 0 32 32">
  <metadata><?xpacket begin="﻿" id="W5M0MpCehiHzreSzNTczkc9d"?>
<x:xmpmeta xmlns:x="adobe:ns:meta/" x:xmptk="Adobe XMP Core 5.6-c142 79.160924, 2017/07/13-01:06:39        ">
   <rdf:RDF xmlns:rdf="http://www.w3.org/1999/02/22-rdf-syntax-ns#">
      <rdf:Description rdf:about=""/>
   </rdf:RDF>
</x:xmpmeta>
                                                                                                    
                                                                                                    
                                                                                                    
                                                                                                    
                                                                                                    
                                                                                                    
                                                                                                    
                                                                                                    
                                                                                                    
                                                                                                    
                                                                                                    
                                                                                                    
                                                                                                    
                                                                                                    
                                                                                                    
                                                                                                    
                                                                                                    
                                                                                                    
                                                                                                    
                                                                                                    
                           
<?xpacket end="w"?></metadata>
<defs>
    <style>
      .cls-1 {
        fill: #ffae00;
      }

      .cls-2 {
        fill: #2f2f36;
        fill-rule: evenodd;
      }
    </style>
  </defs>
  <rect id="BG_Shape" data-name="BG Shape" class="cls-1" width="32" height="32" rx="3" ry="3"/>
  <path class="cls-2" d="M26.987,11.01A3.572,3.572,0,0,0,24.962,9h0L7.023,9.024a5.09,5.09,0,0,0-1.724.3A4.987,4.987,0,0,0,5,11.037L5.014,20.99a4.986,4.986,0,0,0,.3,1.715,5.1,5.1,0,0,0,1.723.3h0l17.937-.024A3.569,3.569,0,0,0,27,20.963Zm-4.15,0L16,15.392,9.15,11.034Zm-3.522,7.394,3.647,2.559-13.937.022,4.676-3.58c0.223-.171-0.736-0.489-0.909-0.71a0.517,0.517,0,0,0-.719-0.09L7.038,20.463,7.025,11.5l8.685,5.927a0.518,0.518,0,0,0,.583,0l8.669-5.95,0.013,8.99-5.033-3.855a0.517,0.517,0,0,0-.719.09A2.523,2.523,0,0,0,19.315,18.407Z"/>
</svg>
