<svg id="Team" xmlns="http://www.w3.org/2000/svg" width="32" height="32" viewBox="0 0 32 32">
  <metadata><?xpacket begin="﻿" id="W5M0MpCehiHzreSzNTczkc9d"?>
<x:xmpmeta xmlns:x="adobe:ns:meta/" x:xmptk="Adobe XMP Core 5.6-c142 79.160924, 2017/07/13-01:06:39        ">
   <rdf:RDF xmlns:rdf="http://www.w3.org/1999/02/22-rdf-syntax-ns#">
      <rdf:Description rdf:about=""/>
   </rdf:RDF>
</x:xmpmeta>
                                                                                                    
                                                                                                    
                                                                                                    
                                                                                                    
                                                                                                    
                                                                                                    
                                                                                                    
                                                                                                    
                                                                                                    
                                                                                                    
                                                                                                    
                                                                                                    
                                                                                                    
                                                                                                    
                                                                                                    
                                                                                                    
                                                                                                    
                                                                                                    
                                                                                                    
                                                                                                    
                           
<?xpacket end="w"?></metadata>
<defs>
    <style>
      .cls-1 {
        fill: #ffae00;
      }

      .cls-2 {
        fill: #2f2f36;
        fill-rule: evenodd;
      }
    </style>
  </defs>
  <rect id="BG_Shape" data-name="BG Shape" class="cls-1" width="32" height="32" rx="3" ry="3"/>
  <path id="Forma_1" data-name="Forma 1" class="cls-2" d="M24.992,17.852a0.529,0.529,0,0,1-.418-0.48,3.084,3.084,0,0,0,1.32-2.836,2.985,2.985,0,0,0-2.775-3.153,2.986,2.986,0,0,0-2.775,3.153,3.085,3.085,0,0,0,1.32,2.836,0.529,0.529,0,0,1-.417.481,4.186,4.186,0,0,0-2.454,1.263,1.045,1.045,0,0,1-.962-1.023c1.189-.618,1.863-2.005,1.863-3.867A3.99,3.99,0,0,0,16,10a3.99,3.99,0,0,0-3.693,4.224c0,1.862.674,3.249,1.863,3.867a1.066,1.066,0,0,1-.963,1.023,4.184,4.184,0,0,0-2.454-1.263,0.529,0.529,0,0,1-.418-0.481,3.084,3.084,0,0,0,1.32-2.836,2.986,2.986,0,0,0-2.775-3.153,2.986,2.986,0,0,0-2.775,3.153,3.084,3.084,0,0,0,1.32,2.836,0.529,0.529,0,0,1-.417.48C4.759,18.4,4,19.232,4,21.166a0.487,0.487,0,0,0,.49.483H9.611a5.638,5.638,0,0,0-.255,1.868,0.487,0.487,0,0,0,.49.483H22.154a0.487,0.487,0,0,0,.49-0.483,5.639,5.639,0,0,0-.255-1.868H27.51A0.487,0.487,0,0,0,28,21.166C28,19.232,27.241,18.4,24.992,17.852ZM5,20.682c0.076-.951.477-1.463,2.246-1.891a1.571,1.571,0,0,0,1.174-1.74A0.484,0.484,0,0,0,8.1,16.623c-0.918-.349-1.017-1.576-1.017-2.088a2.022,2.022,0,0,1,1.8-2.186,2.022,2.022,0,0,1,1.8,2.186c0,0.511-.1,1.739-1.017,2.088a0.484,0.484,0,0,0-.313.428,1.571,1.571,0,0,0,1.174,1.74,4.6,4.6,0,0,1,1.626.645,4.517,4.517,0,0,0-1.973,1.227l-0.016.02H5Zm5.352,2.351a2.983,2.983,0,0,1,.437-1.571,0.491,0.491,0,0,0,.03-0.043c0.453-.629,1.3-1.046,2.841-1.419a1.988,1.988,0,0,0,1.5-2.241,0.484,0.484,0,0,0-.313-0.428c-0.986-.375-1.552-1.507-1.552-3.107A3.027,3.027,0,0,1,16,10.967a3.026,3.026,0,0,1,2.713,3.258c0,1.6-.566,2.732-1.552,3.107a0.484,0.484,0,0,0-.313.428A1.988,1.988,0,0,0,18.344,20c2.58,0.624,3.218,1.375,3.308,3.033h-11.3Zm11.5-2.351-0.016-.02a4.516,4.516,0,0,0-1.973-1.227,4.6,4.6,0,0,1,1.626-.645,1.571,1.571,0,0,0,1.174-1.74,0.484,0.484,0,0,0-.313-0.428c-0.918-.349-1.017-1.576-1.017-2.088a2.022,2.022,0,0,1,1.8-2.186,2.022,2.022,0,0,1,1.8,2.186c0,0.511-.1,1.739-1.017,2.088a0.484,0.484,0,0,0-.313.428,1.571,1.571,0,0,0,1.175,1.74c1.769,0.428,2.17.941,2.246,1.891H21.843Z"/>
  <path id="Forma_1_copy_4" data-name="Forma 1 copy 4" class="cls-2" d="M24.992,17.852a0.529,0.529,0,0,1-.418-0.48,3.084,3.084,0,0,0,1.32-2.836,2.985,2.985,0,0,0-2.775-3.153,2.986,2.986,0,0,0-2.775,3.153,3.085,3.085,0,0,0,1.32,2.836,0.529,0.529,0,0,1-.417.481,4.186,4.186,0,0,0-2.454,1.263,1.045,1.045,0,0,1-.962-1.023c1.189-.618,1.863-2.005,1.863-3.867A3.99,3.99,0,0,0,16,10a3.99,3.99,0,0,0-3.693,4.224c0,1.862.674,3.249,1.863,3.867a1.066,1.066,0,0,1-.963,1.023,4.184,4.184,0,0,0-2.454-1.263,0.529,0.529,0,0,1-.418-0.481,3.084,3.084,0,0,0,1.32-2.836,2.986,2.986,0,0,0-2.775-3.153,2.986,2.986,0,0,0-2.775,3.153,3.084,3.084,0,0,0,1.32,2.836,0.529,0.529,0,0,1-.417.48C4.759,18.4,4,19.232,4,21.166a0.487,0.487,0,0,0,.49.483H9.611a5.638,5.638,0,0,0-.255,1.868,0.487,0.487,0,0,0,.49.483H22.154a0.487,0.487,0,0,0,.49-0.483,5.639,5.639,0,0,0-.255-1.868H27.51A0.487,0.487,0,0,0,28,21.166C28,19.232,27.241,18.4,24.992,17.852ZM5,20.682c0.076-.951.477-1.463,2.246-1.891a1.571,1.571,0,0,0,1.174-1.74A0.484,0.484,0,0,0,8.1,16.623c-0.918-.349-1.017-1.576-1.017-2.088a2.022,2.022,0,0,1,1.8-2.186,2.022,2.022,0,0,1,1.8,2.186c0,0.511-.1,1.739-1.017,2.088a0.484,0.484,0,0,0-.313.428,1.571,1.571,0,0,0,1.174,1.74,4.6,4.6,0,0,1,1.626.645,4.517,4.517,0,0,0-1.973,1.227l-0.016.02H5Zm5.352,2.351a2.983,2.983,0,0,1,.437-1.571,0.491,0.491,0,0,0,.03-0.043c0.453-.629,1.3-1.046,2.841-1.419a1.988,1.988,0,0,0,1.5-2.241,0.484,0.484,0,0,0-.313-0.428c-0.986-.375-1.552-1.507-1.552-3.107A3.027,3.027,0,0,1,16,10.967a3.026,3.026,0,0,1,2.713,3.258c0,1.6-.566,2.732-1.552,3.107a0.484,0.484,0,0,0-.313.428A1.988,1.988,0,0,0,18.344,20c2.58,0.624,3.218,1.375,3.308,3.033h-11.3Zm11.5-2.351-0.016-.02a4.516,4.516,0,0,0-1.973-1.227,4.6,4.6,0,0,1,1.626-.645,1.571,1.571,0,0,0,1.174-1.74,0.484,0.484,0,0,0-.313-0.428c-0.918-.349-1.017-1.576-1.017-2.088a2.022,2.022,0,0,1,1.8-2.186,2.022,2.022,0,0,1,1.8,2.186c0,0.511-.1,1.739-1.017,2.088a0.484,0.484,0,0,0-.313.428,1.571,1.571,0,0,0,1.175,1.74c1.769,0.428,2.17.941,2.246,1.891H21.843Z"/>
</svg>
