<svg id="Quote_Testimonial" data-name="Quote &amp; Testimonial" xmlns="http://www.w3.org/2000/svg" width="32" height="32" viewBox="0 0 32 32">
  <metadata><?xpacket begin="﻿" id="W5M0MpCehiHzreSzNTczkc9d"?>
<x:xmpmeta xmlns:x="adobe:ns:meta/" x:xmptk="Adobe XMP Core 5.6-c142 79.160924, 2017/07/13-01:06:39        ">
   <rdf:RDF xmlns:rdf="http://www.w3.org/1999/02/22-rdf-syntax-ns#">
      <rdf:Description rdf:about=""/>
   </rdf:RDF>
</x:xmpmeta>
                                                                                                    
                                                                                                    
                                                                                                    
                                                                                                    
                                                                                                    
                                                                                                    
                                                                                                    
                                                                                                    
                                                                                                    
                                                                                                    
                                                                                                    
                                                                                                    
                                                                                                    
                                                                                                    
                                                                                                    
                                                                                                    
                                                                                                    
                                                                                                    
                                                                                                    
                                                                                                    
                           
<?xpacket end="w"?></metadata>
<defs>
    <style>
      .cls-1 {
        fill: #ffae00;
      }

      .cls-2 {
        fill: #2f2f36;
        fill-rule: evenodd;
      }
    </style>
  </defs>
  <rect id="BG_Shape" data-name="BG Shape" class="cls-1" width="32" height="32" rx="3" ry="3"/>
  <path class="cls-2" d="M22.048,14.84a4.611,4.611,0,0,1,1.065-3.006,0.281,0.281,0,0,0-.035-0.367c-0.438-.426-0.709-0.694-0.9-0.882-0.25-.248-0.364-0.361-0.531-0.508a0.3,0.3,0,0,0-.393,0A10.878,10.878,0,0,0,17.6,18.938,4.214,4.214,0,0,0,21.8,23,4.082,4.082,0,0,0,22.048,14.84Zm-10.575,0a4.606,4.606,0,0,1,1.065-3.006,0.282,0.282,0,0,0-.034-0.367c-0.437-.425-0.708-0.693-0.9-0.881-0.251-.248-0.366-0.362-0.533-0.509a0.3,0.3,0,0,0-.393,0,10.88,10.88,0,0,0-3.652,8.864h0A4.215,4.215,0,0,0,11.23,23,4.082,4.082,0,0,0,11.474,14.84Z"/>
</svg>
