<svg id="Title" xmlns="http://www.w3.org/2000/svg" width="32" height="32" viewBox="0 0 32 32">
  <defs>
    <style>
      .cls-1 {
        fill: #ffae00;
      }

      .cls-2 {
        fill-rule: evenodd;
      }
    </style>
  </defs>
  <rect id="BG_Shape" data-name="BG Shape" class="cls-1" width="32" height="32" rx="3" ry="3"/>
  <path id="T_copy" data-name="T copy" class="cls-2" d="M8.723,9.758v3.584H9.094a3.746,3.746,0,0,1,1.074-2.256,2.784,2.784,0,0,1,1.943-.566h0.957V20.734a4.022,4.022,0,0,1-.107,1.23,0.933,0.933,0,0,1-.4.469,1.831,1.831,0,0,1-.928.205H11.193V23h6.934V22.639H17.688a1.777,1.777,0,0,1-.894-0.191A1,1,0,0,1,16.355,22a4.17,4.17,0,0,1-.112-1.27V10.52h0.986a3.345,3.345,0,0,1,1.3.176,2.67,2.67,0,0,1,1.045.864,5.661,5.661,0,0,1,.693,1.782h0.352V9.758H8.723Z"/>
  <path id="T_copy_4" data-name="T copy 4" class="cls-2" d="M18.721,15.421v2.051h0.212a2.143,2.143,0,0,1,.615-1.291,1.593,1.593,0,0,1,1.112-.324h0.548V21.7a2.3,2.3,0,0,1-.062.7,0.534,0.534,0,0,1-.229.268,1.048,1.048,0,0,1-.531.117H20.135V23H24.1V22.793H23.852a1.017,1.017,0,0,1-.511-0.109,0.575,0.575,0,0,1-.252-0.254,2.385,2.385,0,0,1-.064-0.727V15.857h0.564a1.915,1.915,0,0,1,.743.1,1.529,1.529,0,0,1,.6.495,3.241,3.241,0,0,1,.4,1.02h0.2V15.421H18.721Z"/>
</svg>
