<svg id="Twitter" xmlns="http://www.w3.org/2000/svg" width="32" height="32" viewBox="0 0 32 32">
  <metadata><?xpacket begin="﻿" id="W5M0MpCehiHzreSzNTczkc9d"?>
<x:xmpmeta xmlns:x="adobe:ns:meta/" x:xmptk="Adobe XMP Core 5.6-c142 79.160924, 2017/07/13-01:06:39        ">
   <rdf:RDF xmlns:rdf="http://www.w3.org/1999/02/22-rdf-syntax-ns#">
      <rdf:Description rdf:about=""/>
   </rdf:RDF>
</x:xmpmeta>
                                                                                                    
                                                                                                    
                                                                                                    
                                                                                                    
                                                                                                    
                                                                                                    
                                                                                                    
                                                                                                    
                                                                                                    
                                                                                                    
                                                                                                    
                                                                                                    
                                                                                                    
                                                                                                    
                                                                                                    
                                                                                                    
                                                                                                    
                                                                                                    
                                                                                                    
                                                                                                    
                           
<?xpacket end="w"?></metadata>
<defs>
    <style>
      .cls-1, .cls-2 {
        fill: #ffae00;
      }

      .cls-2 {
        stroke: #2f2f36;
        stroke-width: 2px;
        fill-rule: evenodd;
      }
    </style>
  </defs>
  <rect id="BG_Shape" data-name="BG Shape" class="cls-1" width="32" height="32" rx="3" ry="3"/>
  <path id="Forma_1" data-name="Forma 1" class="cls-2" d="M25.346,11.038a0.42,0.42,0,0,0-.476.009,1.527,1.527,0,0,1-.41.186,1.827,1.827,0,0,0,.555-1.218,0.4,0.4,0,0,0-.234-0.329,0.419,0.419,0,0,0-.411.036,3.676,3.676,0,0,1-1.955.652,3.925,3.925,0,0,0-2.637-1A3.816,3.816,0,0,0,15.9,13.119a3.614,3.614,0,0,0,.027.446c-3.568-.086-6.461-3.332-6.49-3.366a0.417,0.417,0,0,0-.665.056,3.577,3.577,0,0,0,.085,3.912,0.422,0.422,0,0,0-.376-0.006,0.394,0.394,0,0,0-.227.347,3.535,3.535,0,0,0,1.469,3.068,0.406,0.406,0,0,0-.147.1,0.385,0.385,0,0,0-.089.383,3.606,3.606,0,0,0,2.61,2.465,5.635,5.635,0,0,1-3.136.829,6.707,6.707,0,0,1-1-.069,0.414,0.414,0,0,0-.446.232,0.386,0.386,0,0,0,.129.473,9.718,9.718,0,0,0,5.669,1.636,11.439,11.439,0,0,0,2.131-.183,9.978,9.978,0,0,0,8.292-9.992,6.044,6.044,0,0,0,1.776-1.979A0.387,0.387,0,0,0,25.346,11.038Z"/>
</svg>
