<svg id="vertical_menu" data-name="vertical menu" xmlns="http://www.w3.org/2000/svg" width="32" height="32" viewBox="0 0 32 32">
  <defs>
    <style>
      .cls-1 {
        fill: #ffae00;
      }

      .cls-2, .cls-3 {
        fill-rule: evenodd;
      }

      .cls-3 {
        fill: #282828;
        opacity: 0.3;
      }
    </style>
  </defs>
  <rect id="BG_Shape" data-name="BG Shape" class="cls-1" width="32" height="32" rx="3" ry="3"/>
  <path id="ABCD" class="cls-2" d="M17.335,10.277h1.148L16.845,5.844h-1l-1.626,4.433h1.142l0.256-.828h1.465ZM16.342,7.086L16.82,8.624H15.867ZM16.112,19.043a1.963,1.963,0,0,0,1.222-.333,1.174,1.174,0,0,0,.413-0.979,0.992,0.992,0,0,0-.186-0.609,0.935,0.935,0,0,0-.533-0.341,0.922,0.922,0,0,0,.466-0.359,1.055,1.055,0,0,0,.158-0.588,1.044,1.044,0,0,0-.446-0.91,2.256,2.256,0,0,0-1.3-.314H14.312v4.433h1.8Zm0.018-1.885a0.491,0.491,0,0,1,.551.557,0.463,0.463,0,0,1-.155.373,0.666,0.666,0,0,1-.445.133h-0.7V17.158H16.13Zm-0.749-1.726H15.9a0.864,0.864,0,0,1,.521.124,0.478,0.478,0,0,1,.161.4,0.455,0.455,0,0,1-.149.369,0.792,0.792,0,0,1-.5.128H15.381V15.432Zm1.83,9.876a0.737,0.737,0,0,1-.207.551,0.821,0.821,0,0,1-.563.174,0.652,0.652,0,0,1-.614-0.3,2.122,2.122,0,0,1-.178-1.014V24.4a1.917,1.917,0,0,1,.195-0.953,0.638,0.638,0,0,1,.585-0.3,0.839,0.839,0,0,1,.585.177,0.794,0.794,0,0,1,.2.582h1.066a1.678,1.678,0,0,0-.557-1.171,1.911,1.911,0,0,0-1.3-.425,1.822,1.822,0,0,0-.987.267,1.718,1.718,0,0,0-.653.755,2.683,2.683,0,0,0-.227,1.14v0.219a2.351,2.351,0,0,0,.5,1.608,1.741,1.741,0,0,0,1.376.569,2.182,2.182,0,0,0,.942-0.195,1.507,1.507,0,0,0,.641-0.55,1.619,1.619,0,0,0,.25-0.817H17.211Z"/>
  <path id="Rectangle_3_copy_2" data-name="Rectangle 3 copy 2" class="cls-3" d="M42,12.178V13H-11.993V12.178H42Z"/>
  <path id="Rectangle_3_copy_3" data-name="Rectangle 3 copy 3" class="cls-3" d="M42,20.191V21.01H-11.993V20.191H42Z"/>
  <path id="Rectangle_3_copy_8" data-name="Rectangle 3 copy 8" class="cls-3" d="M42,28.191V29.01H-11.993V28.191H42Z"/>
  <path id="Rectangle_3_copy_7" data-name="Rectangle 3 copy 7" class="cls-3" d="M42,2.986V3.8H-11.993V2.986H42Z"/>
</svg>
