<svg id="Wishlist" xmlns="http://www.w3.org/2000/svg" width="32" height="32" viewBox="0 0 32 32">
  <defs>
    <style>
      .cls-1, .cls-2 {
        fill: #ffae00;
      }

      .cls-2 {
        stroke: #000;
        stroke-width: 2px;
      }

      .cls-2, .cls-3 {
        fill-rule: evenodd;
      }
    </style>
  </defs>
  <rect id="BG_Shape" data-name="BG Shape" class="cls-1" width="32" height="32" rx="3" ry="3"/>
  <path id="Forma_1" data-name="Forma 1" class="cls-2" d="M23.724,9.452A4.446,4.446,0,0,0,20.2,8a3.492,3.492,0,0,0-1.271.252,4.862,4.862,0,0,0-1.205.68q-0.558.428-.959,0.8a9.932,9.932,0,0,0-.763.8,10,10,0,0,0-.763-0.8q-0.4-.375-0.959-0.8a4.868,4.868,0,0,0-1.205-.68A3.492,3.492,0,0,0,11.8,8,4.446,4.446,0,0,0,8.276,9.452,5.906,5.906,0,0,0,7,13.484,5.913,5.913,0,0,0,7.236,15.1a7.728,7.728,0,0,0,.537,1.418,10.561,10.561,0,0,0,.683,1.143q0.382,0.557.558,0.768a3.614,3.614,0,0,0,.276.3l6.268,7.056a0.568,0.568,0,0,0,.884,0L22.7,18.758A8.2,8.2,0,0,0,25,13.484,5.905,5.905,0,0,0,23.724,9.452Z"/>
  <path id="_" data-name="+" class="cls-3" d="M16.958,14.012H15.065v2.144H13.009v1.631h2.056v2.206h1.893V17.787h2.049V16.156H16.958V14.012Z"/>
  <path id="_copy" data-name="+ copy" class="cls-3" d="M16.958,14.012H15.065v2.144H13.009v1.631h2.056v2.206h1.893V17.787h2.049V16.156H16.958V14.012Z"/>
</svg>
