<svg id="woo" xmlns="http://www.w3.org/2000/svg" width="32" height="32" viewBox="0 0 32 32">
  <defs>
    <style>
      .cls-1 {
        fill: #ffae00;
      }

      .cls-2 {
        fill-rule: evenodd;
      }
    </style>
  </defs>
  <rect id="BG_Shape" data-name="BG Shape" class="cls-1" width="32" height="32" rx="3" ry="3"/>
  <path id="woo-2" data-name="woo" class="cls-2" d="M14.317,11.1a0.909,0.909,0,0,1,.944.583,0.832,0.832,0,0,1,.056.444,2.884,2.884,0,0,1-.231.555c-0.057.13-.105,0.262-0.157,0.389a12.54,12.54,0,0,0-.389,1.351c-0.135.481-.165,1-0.287,1.49-0.039.158-.038,0.323-0.074,0.472-0.053.221-.043,0.453-0.093,0.666l-0.12,1.083L13.9,19.09v0.278a3.05,3.05,0,0,0-.009.407v0.167c0.013,0.063-.007.165,0.009,0.241a1.174,1.174,0,0,1-.287,1.037,0.866,0.866,0,0,1-.213.12,0.8,0.8,0,0,1-.546-0.037,1.936,1.936,0,0,1-.759-0.676c-0.169-.226-0.364-0.441-0.518-0.685a12.482,12.482,0,0,1-.926-1.814c-0.16-.379-0.273-0.782-0.417-1.176-0.045-.123-0.073-0.252-0.111-0.37a0.351,0.351,0,0,0-.028-0.1V16.5a2.113,2.113,0,0,0-.194.389c-0.141.27-.281,0.538-0.407,0.824-0.166.377-.4,0.742-0.565,1.12A11.142,11.142,0,0,1,8,20.534a2.166,2.166,0,0,1-.731.759,0.592,0.592,0,0,1-.555-0.019,3.853,3.853,0,0,1-.787-1.786c-0.166-.511-0.258-1.076-0.407-1.61-0.06-.216-0.081-0.44-0.139-0.648-0.073-.261-0.093-0.533-0.157-0.787C5.139,16.1,5.119,15.736,5.033,15.4l-0.028-.213c-0.092-.361-0.113-0.764-0.2-1.129C4.745,13.825,4.756,13.6,4.7,13.37c-0.041-.168-0.041-0.349-0.083-0.528a1.4,1.4,0,0,1-.028-0.657,0.844,0.844,0,0,1,.546-0.592l0.259-.046a0.9,0.9,0,0,1,.481.074c0.523,0.23.4,0.857,0.546,1.453,0.072,0.3.073,0.614,0.148,0.916,0.053,0.211.055,0.438,0.111,0.657,0.165,0.644.214,1.335,0.389,1.962l0.037,0.222c0.059,0.211.1,0.448,0.157,0.657a2.1,2.1,0,0,0,.1.426V17.905a2.27,2.27,0,0,0,.176-0.342c0.112-.184.214-0.392,0.315-0.583,0.042-.08.064-0.164,0.111-0.241,0.158-.26.277-0.555,0.435-0.815,0.051-.083.07-0.176,0.12-0.259,0.155-.255.261-0.549,0.417-0.805,0.182-.3.338-0.633,0.5-0.944a1.916,1.916,0,0,1,.713-0.953,0.811,0.811,0,0,1,.611-0.037,1.5,1.5,0,0,1,.592,1.194l0.037,0.231c0.061,0.216.085,0.444,0.148,0.666,0.14,0.492.262,1,.416,1.463,0.075,0.226.137,0.44,0.222,0.648a1,1,0,0,0,.092.25,1.523,1.523,0,0,1,.037-0.352c0.036-.159.021-0.325,0.055-0.472l0.019-.222c0.063-.268.066-0.571,0.13-0.833,0.058-.24.05-0.469,0.111-0.7,0.081-.313.115-0.642,0.2-0.953a13.657,13.657,0,0,1,.537-1.666,3.888,3.888,0,0,1,.407-0.805,0.775,0.775,0,0,1,.352-0.231A0.982,0.982,0,0,0,14.317,11.1ZM18.2,12.25a2.589,2.589,0,0,1,2.675,1.823,4.647,4.647,0,0,1,.167.666,3.573,3.573,0,0,1,.074.833,2.046,2.046,0,0,1-.009.389V16.11c-0.019.084-.018,0.2-0.037,0.278l-0.037.315c-0.057.219-.087,0.448-0.157,0.657A5.165,5.165,0,0,1,19.723,19.4a2.913,2.913,0,0,1-.981.667,2.86,2.86,0,0,1-.37.092,1.908,1.908,0,0,1-.629.056c-0.059-.013-0.138,0-0.2-0.018-0.163-.039-0.329-0.051-0.481-0.1a2.522,2.522,0,0,1-1.416-1.129,4.259,4.259,0,0,1-.416-1.083c-0.042-.15-0.029-0.292-0.065-0.454a4.038,4.038,0,0,1,0-1.259l0.018-.222c0.056-.229.068-0.468,0.139-0.685A6.531,6.531,0,0,1,16.15,13.5a3.066,3.066,0,0,1,1.305-1.083,3.508,3.508,0,0,1,.509-0.139A1,1,0,0,0,18.2,12.25Zm6.535,0A2.565,2.565,0,0,1,27.387,14a4.989,4.989,0,0,1,.176.639,3.68,3.68,0,0,1,.093.926,2.2,2.2,0,0,1-.009.417c-0.024.107,0,.234-0.028,0.333-0.036.157-.017,0.3-0.055,0.444-0.061.235-.1,0.471-0.176,0.694A5,5,0,0,1,26.257,19.4a2.833,2.833,0,0,1-.907.639,3.109,3.109,0,0,1-.4.111,1.99,1.99,0,0,1-.676.065c-0.059-.013-0.138,0-0.2-0.018-0.162-.038-0.329-0.051-0.481-0.1a2.579,2.579,0,0,1-1.462-1.213,4.229,4.229,0,0,1-.4-1.138c-0.035-.136-0.015-0.263-0.046-0.407a2.715,2.715,0,0,1-.019-0.768V16.4l0.056-.509c0.065-.264.094-0.531,0.176-0.777a6.27,6.27,0,0,1,.815-1.648,2.99,2.99,0,0,1,1.277-1.046,3.691,3.691,0,0,1,.509-0.139A1,1,0,0,0,24.739,12.25Zm-6.414,1.786a0.853,0.853,0,0,1-.148.037,1.324,1.324,0,0,0-.287.167,1.892,1.892,0,0,0-.407.491,3.882,3.882,0,0,0-.472.953c-0.053.162-.072,0.336-0.111,0.509l-0.009.176a1.983,1.983,0,0,0-.009.62,1.551,1.551,0,0,0,.814,1.4,0.609,0.609,0,0,0,.315-0.037,1.448,1.448,0,0,0,.555-0.37,2.9,2.9,0,0,0,.676-1.231c0.059-.184.057-0.36,0.1-0.565a2.549,2.549,0,0,0,.009-0.842,3.728,3.728,0,0,0-.139-0.518A0.881,0.881,0,0,0,18.325,14.036Zm6.535,0-0.194.056a1.313,1.313,0,0,0-.25.157,1.88,1.88,0,0,0-.4.481,4.042,4.042,0,0,0-.491,1.018c-0.047.144-.058,0.3-0.093,0.454q0,0.088-.009.176a1.916,1.916,0,0,0-.009.6,1.56,1.56,0,0,0,.815,1.407,0.609,0.609,0,0,0,.315-0.037,1.439,1.439,0,0,0,.555-0.37,2.894,2.894,0,0,0,.676-1.231c0.054-.168.051-0.33,0.093-0.518a2.694,2.694,0,0,0,.009-0.953,3.624,3.624,0,0,0-.139-0.481A0.864,0.864,0,0,0,24.86,14.036Z"/>
</svg>
