<svg id="Working_Hour" data-name="Working Hour" xmlns="http://www.w3.org/2000/svg" width="32" height="32" viewBox="0 0 32 32">
  <metadata><?xpacket begin="﻿" id="W5M0MpCehiHzreSzNTczkc9d"?>
<x:xmpmeta xmlns:x="adobe:ns:meta/" x:xmptk="Adobe XMP Core 5.6-c142 79.160924, 2017/07/13-01:06:39        ">
   <rdf:RDF xmlns:rdf="http://www.w3.org/1999/02/22-rdf-syntax-ns#">
      <rdf:Description rdf:about=""/>
   </rdf:RDF>
</x:xmpmeta>
                                                                                                    
                                                                                                    
                                                                                                    
                                                                                                    
                                                                                                    
                                                                                                    
                                                                                                    
                                                                                                    
                                                                                                    
                                                                                                    
                                                                                                    
                                                                                                    
                                                                                                    
                                                                                                    
                                                                                                    
                                                                                                    
                                                                                                    
                                                                                                    
                                                                                                    
                                                                                                    
                           
<?xpacket end="w"?></metadata>
<defs>
    <style>
      .cls-1 {
        fill: #ffae00;
      }

      .cls-2 {
        fill: #2f2f36;
        fill-rule: evenodd;
      }
    </style>
  </defs>
  <rect id="BG_Shape" data-name="BG Shape" class="cls-1" width="32" height="32" rx="3" ry="3"/>
  <path id="Forma_1" data-name="Forma 1" class="cls-2" d="M26.566,12.074a10.72,10.72,0,0,0-5.824-5.8A10.746,10.746,0,0,0,16.483,5.4a10.634,10.634,0,0,0-4.246.874A10.906,10.906,0,0,0,5.563,16.322,10.932,10.932,0,0,0,12.237,26.4a10.635,10.635,0,0,0,4.246.873,11,11,0,0,0,10.082-6.689A10.8,10.8,0,0,0,26.566,12.074Zm-2.5,8.644a8.727,8.727,0,0,1-3.2,3.188,8.561,8.561,0,0,1-4.382,1.175,8.415,8.415,0,0,1-3.392-.7A8.547,8.547,0,0,1,8.45,19.728a8.8,8.8,0,0,1,.479-7.778,8.729,8.729,0,0,1,3.186-3.187,8.736,8.736,0,0,1,8.752,0,8.752,8.752,0,0,1,3.2,3.187A8.773,8.773,0,0,1,24.063,20.718Zm-6.948-4.482V10.6A1.25,1.25,0,0,0,16,10a1.273,1.273,0,0,0-1.113.6v5.722a0.5,0.5,0,0,1,.022.087,0.569,0.569,0,0,0,.163.49l4.251,4.253a2.666,2.666,0,0,0,1.837,0c0.25-.25-0.766-1.613-1-1.849Z"/>
</svg>
