<svg xmlns="http://www.w3.org/2000/svg" width="32" height="32" viewBox="0 0 32 32">
  <defs>
    <style>
      .cls-1 {
        fill: #ffae00;
      }

      .cls-2 {
        fill-rule: evenodd;
      }
    </style>
  </defs>
  <rect id="BG_Shape" data-name="BG Shape" class="cls-1" width="32" height="32" rx="3" ry="3"/>
  <path class="cls-2" d="M15.5,5.765a9.676,9.676,0,0,1,4.132.916,9.434,9.434,0,0,1,5.089,5.944,9.035,9.035,0,0,1,.366,2.809,7.315,7.315,0,0,1-.081,1.506c-0.111.47-.14,0.949-0.285,1.384a4.065,4.065,0,0,1-2.443,2.87,3.414,3.414,0,0,1-1.934-.041A3.446,3.446,0,0,1,17.988,16.9c0.573-1.743,2.037-2.608,2.992-3.969a4.63,4.63,0,0,0,.59-1.242c0.047-.146.024-0.267,0.061-0.428a1.7,1.7,0,0,0,.041-0.651L21.591,10.1a3.519,3.519,0,0,0-.611-1.079A3.823,3.823,0,0,0,19.7,8.208a10.227,10.227,0,0,0-1.751-.529l-0.468-.041A3.8,3.8,0,0,0,16.115,7.6H15.79l-0.936.122a8.823,8.823,0,0,0-2.544.977,8.377,8.377,0,0,0-3.623,4.5,8.691,8.691,0,0,0,.061,4.723c0.911,2.763,2.418,4.706,5.17,5.618a8.321,8.321,0,0,0,4.315.061c1.037-.34,2.083-1.286,3.583-0.794a2.806,2.806,0,0,1,.773.407,3.032,3.032,0,0,1,1.038,1.771,2.764,2.764,0,0,1-.061,1.2A2.117,2.117,0,0,1,22.1,27.811l-0.346.041a2.346,2.346,0,0,1-.794.02,4.6,4.6,0,0,1-1.364-.407c-0.1-.06-0.21-0.133-0.305-0.2l-0.2-.224a1.732,1.732,0,0,1-.468-0.427,1.673,1.673,0,0,1,.285-1.954,0.721,0.721,0,0,1,.977.082,3.363,3.363,0,0,1,.712,1.771,1.192,1.192,0,0,0,.407.875,0.779,0.779,0,0,0,.366-0.041,1.982,1.982,0,0,0,.957-0.489A2.078,2.078,0,0,0,22.833,26a2.518,2.518,0,0,0-.9-2.646,2.5,2.5,0,0,0-2.321.224A13.494,13.494,0,0,1,18.151,24c-0.318.09-.615,0.065-0.957,0.142a5.792,5.792,0,0,1-1.221.081,8.955,8.955,0,0,1-3.5-.631,6.941,6.941,0,0,1-.977-0.407c-0.38-.231-0.779-0.438-1.14-0.692a9.685,9.685,0,0,1-3.4-4.4,11.116,11.116,0,0,1-.387-1.547l-0.041-.529a5.885,5.885,0,0,1,0-1.791l0.041-.509c0.112-.457.162-0.915,0.305-1.344A10.006,10.006,0,0,1,8.156,9.8c0.114-.163.27-0.31,0.387-0.468a7.844,7.844,0,0,1,.794-0.875L9.6,8.167c0.292-.221.556-0.481,0.855-0.692a10.127,10.127,0,0,1,2.585-1.343c0.5-.17,1.038-0.2,1.608-0.326A5.158,5.158,0,0,0,15.5,5.765Z"/>
</svg>
