<svg xmlns="http://www.w3.org/2000/svg" width="1000" height="1000" viewBox="0 0 1000 1000">
  <metadata><?xpacket begin="﻿" id="W5M0MpCehiHzreSzNTczkc9d"?>
<x:xmpmeta xmlns:x="adobe:ns:meta/" x:xmptk="Adobe XMP Core 5.6-c142 79.160924, 2017/07/13-01:06:39        ">
   <rdf:RDF xmlns:rdf="http://www.w3.org/1999/02/22-rdf-syntax-ns#">
      <rdf:Description rdf:about=""/>
   </rdf:RDF>
</x:xmpmeta>
                                                                                                    
                                                                                                    
                                                                                                    
                                                                                                    
                                                                                                    
                                                                                                    
                                                                                                    
                                                                                                    
                                                                                                    
                                                                                                    
                                                                                                    
                                                                                                    
                                                                                                    
                                                                                                    
                                                                                                    
                                                                                                    
                                                                                                    
                                                                                                    
                                                                                                    
                                                                                                    
                           
<?xpacket end="w"?></metadata>
<defs>
    <style>
      .cls-1 {
        fill: #eee;
      }

      .cls-2 {
        fill: #ddd;
        fill-rule: evenodd;
      }
    </style>
  </defs>
  <rect class="cls-1" width="1000" height="1000"/>
  <path class="cls-2" d="M400,578.913A21.112,21.112,0,0,0,421.087,600H578.913A21.112,21.112,0,0,0,600,578.913V421.087A21.112,21.112,0,0,0,578.913,400H421.087A21.112,21.112,0,0,0,400,421.087V578.913Zm178.913,11.075H421.087a11.11,11.11,0,0,1-11.075-11.075V552.554l37.924-37.924,32.407,32.407a4.982,4.982,0,0,0,7.07,0l58.521-58.52,44.054,44.054v46.342A11.11,11.11,0,0,1,578.913,589.988ZM421.087,410.012H578.913a11.11,11.11,0,0,1,11.075,11.075v97.3l-40.54-40.5a4.984,4.984,0,0,0-7.07,0l-58.52,58.521-32.407-32.407a4.982,4.982,0,0,0-7.07,0l-34.369,34.369V421.087A11.11,11.11,0,0,1,421.087,410.012Zm40.907,70.127a25.46,25.46,0,1,0-25.459-25.46A25.49,25.49,0,0,0,461.994,480.139Zm0-40.907a15.448,15.448,0,1,1-15.447,15.447A15.461,15.461,0,0,1,461.994,439.232Z"/>
</svg>
